<svg width="123" height="59" viewBox="0 0 123 59" fill="none" xmlns="http://www.w3.org/2000/svg">
<path d="M15.6958 29.5713C15.8042 29.8483 15.8765 30.1193 15.9126 30.3843C15.9608 30.6372 15.9849 30.866 15.9849 31.0708C15.9849 31.4201 15.9186 31.6971 15.7861 31.9019C15.6536 32.1066 15.4429 32.2692 15.1538 32.3896C14.8768 32.5101 14.5094 32.5884 14.0518 32.6245C13.6061 32.6606 13.0641 32.6787 12.4258 32.6787C11.8356 32.6787 11.2454 32.6667 10.6553 32.6426C10.0771 32.6185 9.48096 32.5884 8.8667 32.5522C8.25244 32.5161 7.64421 32.486 7.04199 32.4619C6.45182 32.4258 5.84961 32.4077 5.23535 32.4077C4.44043 32.4077 3.65755 32.4499 2.88672 32.5342C2.11589 32.6064 1.34505 32.751 0.574219 32.9678C0.574219 32.2331 0.700684 31.6489 0.953613 31.2153C1.21859 30.7817 1.58594 30.4505 2.05566 30.2217C2.52539 29.9928 3.09147 29.8423 3.75391 29.77C4.42839 29.6978 5.17513 29.6616 5.99414 29.6616C6.8252 29.6616 7.72852 29.6857 8.7041 29.7339C9.69173 29.7821 10.7516 29.8062 11.8838 29.8062C12.5703 29.8062 13.2388 29.7941 13.8892 29.77C14.5516 29.7339 15.1538 29.6676 15.6958 29.5713ZM24.1147 36.9424C25.4155 36.4847 26.6681 35.9367 27.8726 35.2983C29.089 34.6479 30.167 33.8892 31.1064 33.022C32.0459 32.1548 32.7926 31.1672 33.3467 30.0591C33.9128 28.951 34.1958 27.7044 34.1958 26.3193C34.1958 25.416 34.0272 24.603 33.6899 23.8804C33.3647 23.1577 32.9191 22.5495 32.353 22.0557C31.7869 21.5498 31.1245 21.1644 30.3657 20.8994C29.6069 20.6344 28.7939 20.502 27.9268 20.502C27.0355 20.502 26.2767 20.6043 25.6504 20.8091C25.0361 21.0018 24.5363 21.2668 24.1509 21.604C23.7655 21.9292 23.4824 22.3146 23.3018 22.7603C23.1331 23.1938 23.0488 23.6515 23.0488 24.1333C23.0488 24.8319 23.1813 25.5063 23.4463 26.1567C23.7113 26.8071 24.1328 27.3672 24.7109 27.8369L24.6387 28.0718C23.916 28.4211 23.2174 28.5957 22.543 28.5957C22.0853 28.5957 21.6577 28.5295 21.2603 28.397C20.8748 28.2645 20.5376 28.0658 20.2485 27.8008C19.9595 27.5358 19.7306 27.2106 19.562 26.8252C19.4054 26.4277 19.3271 25.9761 19.3271 25.4702C19.3271 24.7355 19.4958 24.055 19.833 23.4287C20.1823 22.7904 20.646 22.2062 21.2241 21.6763C21.8143 21.1463 22.4948 20.6766 23.2656 20.2671C24.0365 19.8455 24.8374 19.4902 25.6685 19.2012C26.5116 18.9121 27.3607 18.6953 28.2158 18.5508C29.083 18.3942 29.902 18.3159 30.6729 18.3159C31.7327 18.3159 32.7505 18.4604 33.7261 18.7495C34.7017 19.0265 35.5628 19.4481 36.3096 20.0142C37.0563 20.5682 37.6465 21.2607 38.0801 22.0918C38.5257 22.9108 38.7485 23.8623 38.7485 24.9463C38.7485 25.8978 38.604 26.8011 38.3149 27.6562C38.0379 28.4993 37.6585 29.2943 37.1768 30.041C36.695 30.7757 36.1289 31.4622 35.4785 32.1006C34.8281 32.7389 34.1356 33.3291 33.4009 33.8711C32.6662 34.401 31.9014 34.8888 31.1064 35.3345C30.3236 35.7681 29.5588 36.1535 28.812 36.4907L28.8481 36.5991C28.9084 36.5871 28.9686 36.5811 29.0288 36.5811C29.1011 36.5811 29.1673 36.5811 29.2275 36.5811H29.6431C31.0041 36.5811 32.3169 36.7858 33.5815 37.1953C34.8462 37.5928 35.9603 38.1709 36.9238 38.9297C37.8994 39.6885 38.6763 40.6219 39.2544 41.73C39.8446 42.826 40.1396 44.0726 40.1396 45.4697C40.1396 46.7585 39.9349 47.9689 39.5254 49.1011C39.1279 50.2332 38.5739 51.269 37.8633 52.2085C37.1527 53.1479 36.3156 53.985 35.3521 54.7197C34.3885 55.4665 33.3467 56.0928 32.2266 56.5986C31.1064 57.1045 29.9321 57.4899 28.7036 57.7549C27.4871 58.0319 26.2646 58.1704 25.0361 58.1704C24.5182 58.1704 23.9461 58.1343 23.3198 58.062C22.6935 58.0018 22.0672 57.8934 21.4409 57.7368C20.8267 57.5802 20.2244 57.3755 19.6343 57.1226C19.0562 56.8696 18.5382 56.5565 18.0806 56.1831C17.6349 55.8218 17.2796 55.3942 17.0146 54.9004C16.7376 54.4186 16.5991 53.8586 16.5991 53.2202C16.5991 52.883 16.6714 52.5518 16.8159 52.2266C16.9604 51.9014 17.1592 51.6063 17.4121 51.3413C17.665 51.0763 17.9661 50.8595 18.3154 50.6909C18.6647 50.5343 19.0441 50.4561 19.4536 50.4561C19.8511 51.3714 20.3268 52.1543 20.8809 52.8047C21.4469 53.4671 22.0612 54.0091 22.7236 54.4307C23.3861 54.8643 24.0846 55.1834 24.8193 55.3882C25.554 55.5929 26.2948 55.6953 27.0415 55.6953C28.0894 55.6953 29.1131 55.4966 30.1128 55.0991C31.1245 54.7017 32.0218 54.1296 32.8047 53.3828C33.5876 52.6361 34.2139 51.7267 34.6836 50.6548C35.1654 49.5828 35.4062 48.3724 35.4062 47.0234C35.4062 45.6022 35.1533 44.3436 34.6475 43.2476C34.1416 42.1395 33.4611 41.2121 32.606 40.4653C31.7629 39.7065 30.7752 39.1344 29.6431 38.749C28.5229 38.3516 27.3426 38.1528 26.1021 38.1528H25.542C25.3132 38.1528 25.1084 38.1589 24.9277 38.1709C24.7591 38.1829 24.5483 38.201 24.2954 38.2251L24.1147 36.9424ZM57.3389 18.3521C59.013 18.3521 60.5607 18.6291 61.9819 19.1831C63.4152 19.7371 64.6437 20.5562 65.6675 21.6401C66.7033 22.7241 67.5103 24.061 68.0884 25.6509C68.6785 27.2287 68.9736 29.0474 68.9736 31.1069C68.9736 32.6125 68.8171 34.0277 68.5039 35.3525C68.1908 36.6654 67.7511 37.8758 67.1851 38.9839C66.631 40.0799 65.9565 41.0615 65.1616 41.9287C64.3667 42.7959 63.4814 43.5306 62.5059 44.1328C61.5423 44.735 60.5065 45.1927 59.3984 45.5059C58.2904 45.819 57.1341 45.9756 55.9297 45.9756C54.2796 45.9756 52.738 45.6986 51.3047 45.1445C49.8714 44.6025 48.6248 43.7956 47.5649 42.7236C46.5171 41.6396 45.6921 40.2967 45.0898 38.6948C44.4876 37.0929 44.1865 35.2441 44.1865 33.1484C44.1865 31.667 44.3431 30.2759 44.6562 28.9751C44.9694 27.6623 45.409 26.4578 45.9751 25.3618C46.5532 24.2658 47.2397 23.2842 48.0347 22.417C48.8416 21.5498 49.7329 20.8151 50.7085 20.2129C51.6841 19.6107 52.7319 19.153 53.8521 18.8398C54.9722 18.5146 56.1344 18.3521 57.3389 18.3521ZM57.1763 43.5908C58.3325 43.5908 59.3623 43.3319 60.2656 42.814C61.181 42.284 61.9518 41.5553 62.5781 40.6279C63.2165 39.6885 63.6982 38.5744 64.0234 37.2856C64.3607 35.9849 64.5293 34.5576 64.5293 33.0039C64.5293 31.9079 64.4329 30.848 64.2402 29.8242C64.0596 28.7884 63.7946 27.8188 63.4453 26.9155C63.096 26.0002 62.6685 25.1691 62.1626 24.4224C61.6688 23.6756 61.1027 23.0312 60.4644 22.4893C59.826 21.9473 59.1274 21.5257 58.3687 21.2246C57.6099 20.9235 56.7969 20.7729 55.9297 20.7729C54.8939 20.7729 53.9243 21.0138 53.021 21.4956C52.1297 21.9653 51.3529 22.6579 50.6904 23.5732C50.04 24.4766 49.5282 25.5846 49.1548 26.8975C48.7814 28.1982 48.5947 29.6797 48.5947 31.3418C48.5947 32.9437 48.7935 34.4854 49.1909 35.9668C49.5884 37.4362 50.1605 38.737 50.9072 39.8691C51.654 41.0013 52.5513 41.9046 53.5991 42.5791C54.659 43.2536 55.8514 43.5908 57.1763 43.5908ZM82.9932 26.3374C81.6442 26.3374 80.3856 26.1326 79.2173 25.7231C78.049 25.3136 77.0312 24.6813 76.1641 23.8262C75.3089 22.971 74.6344 21.881 74.1406 20.5562C73.6468 19.2192 73.3999 17.6294 73.3999 15.7866C73.3999 13.992 73.6227 12.2938 74.0684 10.6919C74.514 9.09001 75.1764 7.68685 76.0557 6.48242C76.9349 5.27799 78.0309 4.3265 79.3438 3.62793C80.6566 2.91732 82.1742 2.56201 83.8965 2.56201C85.2575 2.56201 86.5101 2.76676 87.6543 3.17627C88.7985 3.57373 89.7801 4.20605 90.5991 5.07324C91.4302 5.92839 92.0745 7.01839 92.5322 8.34326C93.002 9.66813 93.2368 11.252 93.2368 13.0947C93.2368 14.8893 93.0321 16.5936 92.6226 18.2075C92.2131 19.8094 91.5868 21.2126 90.7437 22.417C89.9006 23.6214 88.8346 24.5789 87.5459 25.2896C86.2572 25.9881 84.7396 26.3374 82.9932 26.3374ZM83.228 24.3501C84.2759 24.3501 85.1792 24.0972 85.938 23.5913C86.7088 23.0854 87.3472 22.3748 87.853 21.4595C88.3589 20.5441 88.7323 19.4541 88.9731 18.1895C89.2261 16.9248 89.3525 15.5337 89.3525 14.0161C89.3525 12.2697 89.1899 10.7943 88.8647 9.58984C88.5516 8.38542 88.118 7.40983 87.564 6.66309C87.022 5.9043 86.3896 5.35628 85.667 5.01904C84.9443 4.6818 84.1795 4.51318 83.3726 4.51318C82.3368 4.51318 81.4395 4.76611 80.6807 5.27197C79.9219 5.77783 79.2896 6.48844 78.7837 7.40381C78.2899 8.30713 77.9165 9.39714 77.6636 10.6738C77.4227 11.9385 77.3022 13.3296 77.3022 14.8472C77.3022 16.5936 77.4588 18.069 77.772 19.2734C78.0972 20.4779 78.5308 21.4595 79.0728 22.2183C79.6147 22.965 80.241 23.507 80.9517 23.8442C81.6743 24.1815 82.4331 24.3501 83.228 24.3501ZM84.1855 47.7822C83.6436 47.5895 83.2581 47.3607 83.0293 47.0957C82.8005 46.8428 82.686 46.4935 82.686 46.0479C82.686 45.6022 82.8366 45.1024 83.1377 44.5483C83.7279 43.4403 84.7817 41.6938 86.2993 39.3091C87.8169 36.9123 89.7741 33.9434 92.1709 30.4023C94.5798 26.8613 97.4222 22.7783 100.698 18.1533C103.974 13.5163 107.666 8.39746 111.773 2.79688C112.098 2.36328 112.375 2.014 112.604 1.74902C112.845 1.47201 113.062 1.26123 113.254 1.1167C113.447 0.960124 113.622 0.857747 113.778 0.80957C113.935 0.749349 114.097 0.719238 114.266 0.719238C114.953 0.719238 115.489 1.1167 115.874 1.91162C113.08 5.54899 110.37 9.18034 107.744 12.8057C105.118 16.431 102.511 20.1226 99.9214 23.8804C97.3439 27.6261 94.7544 31.4743 92.1528 35.4248C89.5633 39.3753 86.9076 43.4945 84.1855 47.7822ZM112.568 45.8853C111.219 45.8853 109.96 45.6805 108.792 45.271C107.624 44.8615 106.606 44.2292 105.739 43.374C104.884 42.5189 104.209 41.4289 103.715 40.104C103.222 38.7671 102.975 37.1772 102.975 35.3345C102.975 33.5399 103.197 31.8416 103.643 30.2397C104.089 28.6379 104.751 27.2347 105.63 26.0303C106.51 24.8258 107.606 23.8743 108.918 23.1758C110.231 22.4652 111.749 22.1099 113.471 22.1099C114.832 22.1099 116.085 22.3146 117.229 22.7241C118.373 23.1216 119.355 23.7539 120.174 24.6211C121.005 25.4762 121.649 26.5662 122.107 27.8911C122.577 29.216 122.812 30.7998 122.812 32.6426C122.812 34.4372 122.607 36.1414 122.197 37.7554C121.788 39.3573 121.161 40.7604 120.318 41.9648C119.475 43.1693 118.409 44.1268 117.121 44.8374C115.832 45.536 114.314 45.8853 112.568 45.8853ZM112.803 43.8979C113.851 43.8979 114.754 43.645 115.513 43.1392C116.284 42.6333 116.922 41.9227 117.428 41.0073C117.934 40.092 118.307 39.002 118.548 37.7373C118.801 36.4727 118.927 35.0815 118.927 33.564C118.927 31.8175 118.765 30.3421 118.439 29.1377C118.126 27.9333 117.693 26.9577 117.139 26.2109C116.597 25.4521 115.964 24.9041 115.242 24.5669C114.519 24.2297 113.754 24.061 112.947 24.061C111.911 24.061 111.014 24.314 110.255 24.8198C109.497 25.3257 108.864 26.0363 108.358 26.9517C107.865 27.855 107.491 28.945 107.238 30.2217C106.997 31.4863 106.877 32.8774 106.877 34.395C106.877 36.1414 107.034 37.6169 107.347 38.8213C107.672 40.0257 108.105 41.0073 108.647 41.7661C109.189 42.5129 109.816 43.0549 110.526 43.3921C111.249 43.7293 112.008 43.8979 112.803 43.8979Z" fill="#FFA55C"/>
</svg>
