<svg width="24" height="22" viewBox="0 0 24 22" fill="none" xmlns="http://www.w3.org/2000/svg">
<g filter="url(#filter0_d_41_352)">
<path d="M12 0.625C10.1458 0.625 8.33324 1.17483 6.79153 2.20497C5.24982 3.23511 4.04821 4.69929 3.33863 6.41234C2.62906 8.1254 2.44341 10.0104 2.80514 11.829C3.16688 13.6475 4.05976 15.318 5.37088 16.6291C6.682 17.9402 8.35246 18.8331 10.171 19.1949C11.9896 19.5566 13.8746 19.3709 15.5877 18.6614C17.3007 17.9518 18.7649 16.7502 19.795 15.2085C20.8252 13.6668 21.375 11.8542 21.375 10C21.3723 7.51443 20.3837 5.13145 18.6261 3.37389C16.8686 1.61633 14.4856 0.62773 12 0.625ZM12 18.625C10.2941 18.625 8.62658 18.1192 7.20821 17.1714C5.78984 16.2237 4.68435 14.8767 4.03154 13.3006C3.37874 11.7246 3.20793 9.99043 3.54073 8.31735C3.87353 6.64426 4.69498 5.10743 5.90121 3.9012C7.10744 2.69498 8.64426 1.87352 10.3174 1.54073C11.9904 1.20793 13.7246 1.37873 15.3006 2.03154C16.8767 2.68434 18.2237 3.78983 19.1714 5.20821C20.1192 6.62658 20.625 8.29414 20.625 10C20.6225 12.2867 19.713 14.4791 18.0961 16.0961C16.4791 17.713 14.2867 18.6225 12 18.625ZM15.3 12.4759C14.7804 13.1683 14.0562 13.6797 13.2298 13.9376C12.4035 14.1956 11.5169 14.187 10.6957 13.9131C9.87451 13.6393 9.16028 13.114 8.65416 12.4117C8.14805 11.7094 7.87571 10.8657 7.87571 10C7.87571 9.13433 8.14805 8.29061 8.65416 7.58831C9.16028 6.88601 9.87451 6.36073 10.6957 6.08687C11.5169 5.813 12.4035 5.80443 13.2298 6.06237C14.0562 6.32031 14.7804 6.83168 15.3 7.52406C15.3296 7.56346 15.3512 7.6083 15.3635 7.65603C15.3757 7.70376 15.3785 7.75344 15.3716 7.80223C15.3646 7.85103 15.3482 7.89798 15.3231 7.94041C15.298 7.98284 15.2649 8.01992 15.2255 8.04953C15.1861 8.07914 15.1412 8.1007 15.0935 8.11298C15.0458 8.12526 14.9961 8.12802 14.9473 8.12109C14.8985 8.11417 14.8516 8.09771 14.8091 8.07264C14.7667 8.04758 14.7296 8.0144 14.7 7.975C14.275 7.40832 13.6825 6.98972 13.0063 6.77852C12.3302 6.56731 11.6047 6.57419 10.9327 6.79819C10.2607 7.0222 9.67624 7.45196 9.26206 8.0266C8.84788 8.60125 8.625 9.29165 8.625 10C8.625 10.7084 8.84788 11.3988 9.26206 11.9734C9.67624 12.548 10.2607 12.9778 10.9327 13.2018C11.6047 13.4258 12.3302 13.4327 13.0063 13.2215C13.6825 13.0103 14.275 12.5917 14.7 12.025C14.7598 11.9454 14.8488 11.8929 14.9473 11.8789C15.0458 11.8649 15.1459 11.8907 15.2255 11.9505C15.305 12.0103 15.3576 12.0992 15.3716 12.1978C15.3855 12.2963 15.3598 12.3964 15.3 12.4759Z" fill="#DEC5B1"/>
</g>
<defs>
<filter id="filter0_d_41_352" x="-1.375" y="0.625" width="26.75" height="26.75" filterUnits="userSpaceOnUse" color-interpolation-filters="sRGB">
<feFlood flood-opacity="0" result="BackgroundImageFix"/>
<feColorMatrix in="SourceAlpha" type="matrix" values="0 0 0 0 0 0 0 0 0 0 0 0 0 0 0 0 0 0 127 0" result="hardAlpha"/>
<feOffset dy="4"/>
<feGaussianBlur stdDeviation="2"/>
<feComposite in2="hardAlpha" operator="out"/>
<feColorMatrix type="matrix" values="0 0 0 0 0 0 0 0 0 0 0 0 0 0 0 0 0 0 0.25 0"/>
<feBlend mode="normal" in2="BackgroundImageFix" result="effect1_dropShadow_41_352"/>
<feBlend mode="normal" in="SourceGraphic" in2="effect1_dropShadow_41_352" result="shape"/>
</filter>
</defs>
</svg>
